<?xml version="1.0" encoding="utf-8"?>
<!-- Generator: Adobe Illustrator 24.0.1, SVG Export Plug-In . SVG Version: 6.00 Build 0)  -->
<svg version="1.1" id="Camada_1" xmlns="http://www.w3.org/2000/svg" xmlns:xlink="http://www.w3.org/1999/xlink" x="0px" y="0px"
	 viewBox="0 0 1080 1080" style="enable-background:new 0 0 1080 1080;" xml:space="preserve">
<style type="text/css">
	.st0{fill:none;stroke:#1A1A1A;stroke-width:12;stroke-miterlimit:10;}
	.st1{fill:#EC8800;}
	.st2{fill:#0C0C0C;stroke:#FFFFFF;stroke-miterlimit:10;}
	.st3{fill:none;stroke:#FFFFFF;stroke-width:12;stroke-miterlimit:10;}
	.st4{fill:#FFFFFF;}
	.st5{fill:#EA7628;}
	.st6{fill:none;stroke:#0C0C0C;stroke-width:3;stroke-miterlimit:10;}
	.st7{fill:#0C0C0C;}
	.st8{fill:none;stroke:#FFFFFF;stroke-width:3;stroke-miterlimit:10;}
</style>
<g>
	<path class="st0" d="M1705.79-369.36c-51,0.24-101.99,0.43-152.99,0.8c-4.41,0.03-7.67-1.09-11.07-3.51
		c-22.66-16.14-45.39-32.2-68.33-48.02c-3.83-2.64-4.3-4.67-2.55-8.54c44.92-99.56,89.68-199.18,134.48-298.78
		c17.64-39.22,35.32-78.43,52.82-117.7c1.55-3.48,3.45-4.72,7.74-4.71c29.96,0.05,59.91-0.11,89.87-0.41c4.1-0.04,5.79,1.2,7.2,4.53
		c58.25,138.27,116.61,276.51,175.04,414.73c1.16,2.75,0.94,4.4-1.73,6.42c-22.97,17.33-45.75,34.87-68.75,52.16
		c-1.92,1.44-5.08,2.21-7.67,2.23C1808.49-369.81,1757.14-369.61,1705.79-369.36z"/>
</g>
<g>
	<path class="st0" d="M1705.02-403.53c-41.6,0.19-83.2,0.35-124.8,0.65c-3.6,0.03-6.26-0.89-9.03-2.86
		c-18.48-13.17-37.03-26.27-55.74-39.17c-3.13-2.16-3.5-3.81-2.08-6.97c36.64-81.22,73.16-162.48,109.7-243.73
		c14.39-32,28.82-63.98,43.09-96.02c1.26-2.84,2.81-3.85,6.32-3.84c24.44,0.04,48.87-0.09,73.31-0.33c3.34-0.03,4.72,0.98,5.87,3.7
		c47.52,112.79,95.13,225.56,142.78,338.31c0.95,2.24,0.77,3.59-1.41,5.24c-18.74,14.14-37.32,28.44-56.08,42.55
		c-1.57,1.18-4.14,1.8-6.26,1.82C1788.8-403.89,1746.91-403.72,1705.02-403.53z"/>
</g>
<ellipse transform="matrix(1 -4.681849e-03 4.681849e-03 1 2.6854 8.0107)" class="st1" cx="1712.35" cy="-569.57" rx="46.13" ry="46.03"/>
<rect x="1163.5" y="-35.5" class="st2" width="1084" height="1103"/>
<g>
	<path class="st3" d="M1705.79,785.64c-51,0.24-101.99,0.43-152.99,0.8c-4.41,0.03-7.67-1.09-11.07-3.51
		c-22.66-16.14-45.39-32.2-68.33-48.02c-3.83-2.64-4.3-4.67-2.55-8.54c44.92-99.56,89.68-199.18,134.48-298.78
		c17.64-39.22,35.32-78.43,52.82-117.7c1.55-3.48,3.45-4.72,7.74-4.71c29.96,0.05,59.91-0.11,89.87-0.41c4.1-0.04,5.79,1.2,7.2,4.53
		c58.25,138.27,116.61,276.51,175.04,414.73c1.16,2.75,0.94,4.4-1.73,6.42c-22.97,17.33-45.75,34.87-68.75,52.16
		c-1.92,1.44-5.08,2.21-7.67,2.23C1808.49,785.19,1757.14,785.39,1705.79,785.64z"/>
</g>
<g>
	<path class="st3" d="M1705.02,750.47c-41.6,0.19-83.2,0.35-124.8,0.65c-3.6,0.03-6.26-0.89-9.03-2.86
		c-18.48-13.17-37.03-26.27-55.74-39.17c-3.13-2.16-3.5-3.81-2.08-6.97c36.64-81.22,73.16-162.48,109.7-243.73
		c14.39-32,28.82-63.98,43.09-96.02c1.26-2.84,2.81-3.85,6.32-3.84c24.44,0.04,48.87-0.09,73.31-0.33c3.34-0.03,4.72,0.98,5.87,3.7
		c47.52,112.79,95.13,225.56,142.78,338.31c0.95,2.24,0.77,3.59-1.41,5.24c-18.74,14.14-37.32,28.44-56.08,42.55
		c-1.57,1.18-4.14,1.8-6.26,1.82C1788.8,750.11,1746.91,750.28,1705.02,750.47z"/>
</g>
<ellipse transform="matrix(1 -4.681849e-03 4.681849e-03 1 -2.7221 8.0234)" class="st4" cx="1712.35" cy="585.43" rx="46.13" ry="46.03"/>
<rect x="1163.5" y="-2351.5" class="st2" width="1084" height="1103"/>
<g>
	<path class="st3" d="M1705.79-1530.36c-51,0.24-101.99,0.43-152.99,0.8c-4.41,0.03-7.67-1.09-11.07-3.51
		c-22.66-16.14-45.39-32.2-68.33-48.02c-3.83-2.64-4.3-4.67-2.55-8.54c44.92-99.56,89.68-199.18,134.48-298.78
		c17.64-39.22,35.32-78.43,52.82-117.7c1.55-3.48,3.45-4.72,7.74-4.71c29.96,0.05,59.91-0.11,89.87-0.41c4.1-0.04,5.79,1.2,7.2,4.53
		c58.25,138.27,116.61,276.51,175.04,414.73c1.16,2.75,0.94,4.4-1.73,6.42c-22.97,17.33-45.75,34.87-68.75,52.16
		c-1.92,1.44-5.08,2.21-7.67,2.23C1808.49-1530.81,1757.14-1530.61,1705.79-1530.36z"/>
</g>
<g>
	<path class="st3" d="M1705.02-1565.53c-41.6,0.19-83.2,0.35-124.8,0.65c-3.6,0.03-6.26-0.89-9.03-2.86
		c-18.48-13.17-37.03-26.27-55.74-39.17c-3.13-2.16-3.5-3.81-2.08-6.97c36.64-81.22,73.16-162.48,109.7-243.73
		c14.39-32,28.82-63.98,43.09-96.02c1.26-2.84,2.81-3.85,6.32-3.84c24.44,0.04,48.87-0.09,73.31-0.33c3.34-0.03,4.72,0.98,5.87,3.7
		c47.52,112.79,95.13,225.56,142.78,338.31c0.95,2.24,0.77,3.59-1.41,5.24c-18.74,14.14-37.32,28.44-56.08,42.55
		c-1.57,1.18-4.14,1.8-6.26,1.82C1788.8-1565.89,1746.91-1565.72,1705.02-1565.53z"/>
</g>
<ellipse transform="matrix(1 -4.681849e-03 4.681849e-03 1 8.121 7.998)" class="st5" cx="1712.35" cy="-1730.57" rx="46.13" ry="46.03"/>
<g>
	<g>
		<path class="st6" d="M241.64-586.15c-10.72,0-21.43-0.01-32.15,0.02c-0.93,0-1.61-0.24-2.32-0.75
			c-4.74-3.41-9.51-6.81-14.31-10.16c-0.8-0.56-0.9-0.99-0.53-1.8c9.54-20.87,19.04-41.76,28.55-62.65
			c3.74-8.22,7.5-16.44,11.21-24.68c0.33-0.73,0.73-0.99,1.63-0.98c6.29,0.04,12.59,0.04,18.88,0c0.86,0,1.22,0.26,1.51,0.96
			c12.1,29.11,24.23,58.21,36.37,87.31c0.24,0.58,0.19,0.93-0.37,1.35c-4.84,3.62-9.65,7.28-14.5,10.89
			c-0.4,0.3-1.07,0.46-1.61,0.46C263.22-586.14,252.43-586.15,241.64-586.15z"/>
	</g>
</g>
<g>
	<g>
		<path class="st6" d="M241.52-593.54c-8.74,0-17.48-0.01-26.22,0.01c-0.76,0-1.31-0.19-1.89-0.61c-3.87-2.78-7.75-5.56-11.67-8.29
			c-0.65-0.46-0.73-0.8-0.43-1.47c7.78-17.03,15.53-34.07,23.29-51.1c3.05-6.71,6.12-13.41,9.15-20.13c0.27-0.59,0.59-0.81,1.33-0.8
			c5.13,0.03,10.27,0.03,15.4,0c0.7,0,0.99,0.21,1.23,0.78c9.87,23.75,19.77,47.49,29.67,71.22c0.2,0.47,0.16,0.76-0.3,1.1
			c-3.95,2.95-7.87,5.94-11.83,8.88c-0.33,0.25-0.87,0.37-1.32,0.38C259.12-593.53,250.32-593.54,241.52-593.54z"/>
	</g>
</g>
<ellipse class="st5" cx="243.22" cy="-628.21" rx="9.69" ry="9.67"/>
<g>
	<path class="st7" d="M307.49-594.85l2.08-5.05c8.34,6.74,16.71,10.1,25.13,10.1c6.87,0,12.34-2.03,16.43-6.08
		c4.08-4.05,6.13-9.49,6.13-16.32c0-4.19-0.86-7.78-2.57-10.79c-1.72-3-3.97-5.32-6.74-6.96c-2.78-1.64-5.84-3.07-9.19-4.3
		c-3.35-1.23-6.7-2.5-10.05-3.82c-3.35-1.32-6.42-2.82-9.2-4.5c-2.78-1.68-5.03-4.1-6.74-7.24c-1.72-3.14-2.58-6.94-2.58-11.4
		c0-7.65,2.37-13.79,7.11-18.44c4.74-4.64,10.95-6.96,18.63-6.96c8.83,0,16.75,3.19,23.78,9.56l-1.96,5.05
		c-7.35-6.55-14.83-9.83-22.43-9.83c-6.21,0-11.17,1.82-14.89,5.46c-3.72,3.64-5.58,8.47-5.58,14.48c0,4.46,1.17,8.19,3.5,11.2
		c2.33,3,5.23,5.17,8.7,6.49c3.47,1.32,7.25,2.78,11.34,4.37c4.09,1.59,7.87,3.23,11.34,4.92c3.47,1.69,6.38,4.39,8.7,8.12
		c2.33,3.73,3.49,8.38,3.49,13.93c0,8.56-2.49,15.34-7.48,20.35c-4.99,5.01-11.73,7.51-20.23,7.51
		C324.57-585.02,315.66-588.29,307.49-594.85z"/>
	<path class="st7" d="M414.26-586.66l0-11.61c-7.93,8.83-16.71,13.25-26.35,13.25c-5.23,0-9.46-1.57-12.69-4.71
		c-3.23-3.14-4.84-8.13-4.84-14.95l0-51.62l4.54,0l0,51.07c0,10.38,4.49,15.57,13.48,15.57c8.74,0,17.37-4.73,25.86-14.2l0-52.44
		h4.54l0,69.64H414.26z"/>
	<path class="st7" d="M434.6-656.3l0,11.61c7.92-8.83,16.75-13.25,26.48-13.25c5.23,0,9.46,1.57,12.69,4.71
		c3.23,3.14,4.84,8.12,4.84,14.95l0,51.62l-4.54,0l0-51.07c0-10.38-4.5-15.57-13.49-15.57c-8.66,0-17.33,4.74-25.99,14.2l0,52.44
		h-4.41l0-69.64H434.6z"/>
	<path class="st7" d="M485.85-592.26l1.96-4.78c6.38,4.92,12.67,7.37,18.88,7.37c4.9,0,8.8-1.37,11.71-4.1
		c2.9-2.73,4.35-6.42,4.35-11.06c0-4-1.19-7.19-3.56-9.56c-2.37-2.37-5.25-4.12-8.64-5.26c-3.39-1.14-6.76-2.3-10.11-3.48
		c-3.35-1.18-6.21-3.09-8.58-5.73c-2.37-2.64-3.55-6.14-3.56-10.51c0-5.55,1.74-10.04,5.21-13.45c3.47-3.41,8.07-5.12,13.79-5.12
		c6.54,0,12.54,2.37,18.02,7.1l-1.84,4.78c-5.64-4.82-11.16-7.24-16.55-7.24c-4.25,0-7.66,1.25-10.24,3.76
		c-2.57,2.5-3.86,5.71-3.86,9.63c0,3.55,1.19,6.42,3.56,8.6c2.37,2.18,5.23,3.8,8.58,4.85c3.35,1.05,6.72,2.21,10.11,3.48
		c3.39,1.28,6.27,3.37,8.64,6.28c2.37,2.91,3.56,6.69,3.56,11.33c0,6.19-1.92,11.13-5.76,14.82c-3.84,3.69-8.99,5.53-15.45,5.53
		C498.8-585.03,492.06-587.44,485.85-592.26z"/>
	<path class="st7" d="M582.32-621.63l-46.46,0v0.41c0,10.01,2.08,17.78,6.25,23.28c4.17,5.51,9.81,8.26,16.92,8.26
		c6.46,0,13.07-2.55,19.86-7.65l1.84,4.37c-6.7,5.28-14.1,7.92-22.19,7.92c-8.17,0-14.75-3.12-19.74-9.35
		c-4.99-6.23-7.48-15.04-7.48-26.42c0-11.65,2.57-20.76,7.72-27.31c5.15-6.55,11.68-9.83,19.61-9.83c7.27,0,13.05,2.8,17.35,8.4
		c4.29,5.6,6.44,13.63,6.44,24.1C582.44-623.91,582.4-622.63,582.32-621.63z M558.41-653.45c-6.21,0-11.32,2.35-15.32,7.03
		c-4,4.69-6.37,11.45-7.11,20.28l41.92,0c-0.08-9.01-1.84-15.82-5.27-20.41C569.2-651.15,564.46-653.45,558.41-653.45z"/>
	<path class="st7" d="M620.56-651.67l-18.27,0l0,47.79c0,5.28,0.61,8.83,1.84,10.65c1.23,1.82,3.6,2.73,7.11,2.73
		c2.94,0,6.01-0.59,9.19-1.78v4.78c-3.6,1.09-6.78,1.64-9.56,1.64c-4.82,0-8.21-1.3-10.17-3.89c-1.96-2.59-2.94-7.17-2.94-13.72
		l0-48.2l-13.97,0l0-4.64l13.97,0l0-23.21l4.54,0l0,23.21l18.27,0L620.56-651.67z"/>
</g>
<g>
	<g>
		<path class="st5" d="M626.63-584.88l-0.25-104.61l4.96-0.01l0.24,99.38l45.78-0.11l0.01,5.23L626.63-584.88z"/>
		<path class="st5" d="M708.1-660.92c13.48-0.03,20.24,7.65,20.27,23.05l0.09,35.89c0.02,8.52,0.47,14.14,1.34,16.85l-4.56,0.01
			c-0.79-1.55-1.32-4.89-1.59-10.02c-7.63,7.87-15.71,11.81-24.23,11.83c-6.18,0.01-11.11-1.88-14.82-5.7
			c-3.71-3.82-5.57-9.31-5.58-16.48c-0.04-16.08,10.33-24.14,31.12-24.19c3.91-0.01,8.39,0.37,13.44,1.13l-0.02-8.86
			c-0.02-6.59-1.33-11.33-3.95-14.23c-2.62-2.9-6.58-4.34-11.88-4.33c-7.56,0.02-15.21,2.94-22.93,8.77l-1.97-4.64
			C690.71-657.87,699.14-660.9,708.1-660.92z M723.63-601.39l-0.05-22.38c-4.87-0.76-9.26-1.14-13.18-1.13
			c-9.39,0.02-16.17,1.59-20.34,4.7c-4.17,3.11-6.24,7.81-6.23,14.11c0.01,5.81,1.5,10.24,4.47,13.28
			c2.96,3.04,6.92,4.56,11.88,4.55C708.18-588.27,716-592.65,723.63-601.39z"/>
		<path class="st5" d="M739.85-689.76l4.83-0.01l0.1,41.84c6.67-8.73,14.53-13.11,23.58-13.13c7.91-0.02,14.36,3.31,19.33,9.98
			c4.97,6.67,7.47,16.11,7.5,28.31c0.03,12.59-2.55,22.29-7.76,29.08c-5.2,6.79-11.89,10.2-20.06,10.22
			c-8.35,0.02-15.88-4.08-22.59-12.3l0.03,10.61l-4.7,0.01L739.85-689.76z M767.97-656.12c-8.17,0.02-15.9,4.78-23.18,14.29
			l0.1,40.1c6.8,8.9,14.38,13.33,22.72,13.31c6.78-0.02,12.27-2.94,16.48-8.76c4.2-5.82,6.29-14.25,6.27-25.3
			c-0.03-10.85-2.09-19.17-6.19-24.98C780.07-653.25,774.67-656.14,767.97-656.12z"/>
		<path class="st5" d="M799.56-591.25l2.08-5.09c6.79,5.21,13.5,7.81,20.11,7.8c5.22-0.01,9.37-1.48,12.45-4.39
			c3.08-2.91,4.61-6.84,4.6-11.78c-0.01-4.26-1.28-7.65-3.81-10.16c-2.53-2.51-5.6-4.37-9.21-5.57c-3.61-1.2-7.2-2.43-10.77-3.68
			c-3.57-1.25-6.62-3.28-9.14-6.08c-2.53-2.8-3.8-6.53-3.81-11.18c-0.01-5.91,1.82-10.68,5.51-14.32c3.69-3.64,8.57-5.47,14.66-5.48
			c6.96-0.02,13.35,2.49,19.19,7.51l-1.95,5.09c-6.01-5.12-11.89-7.67-17.63-7.66c-4.52,0.01-8.15,1.35-10.88,4.02
			c-2.73,2.67-4.09,6.09-4.08,10.25c0.01,3.78,1.28,6.83,3.8,9.14c2.53,2.32,5.57,4.03,9.14,5.14c3.57,1.11,7.16,2.33,10.77,3.68
			c3.61,1.35,6.68,3.57,9.21,6.66c2.53,3.1,3.8,7.11,3.81,12.05c0.02,6.59-2.02,11.85-6.09,15.78c-4.08,3.93-9.55,5.91-16.42,5.92
			C813.36-583.58,806.18-586.13,799.56-591.25z"/>
	</g>
</g>
<rect x="-21.5" y="-4.5" class="st2" width="1124" height="1103"/>
<g>
	<path class="st8" d="M266.64,611.85c-10.72,0-21.43-0.01-32.15,0.02c-0.93,0-1.61-0.24-2.32-0.75c-4.74-3.41-9.51-6.81-14.31-10.16
		c-0.8-0.56-0.9-0.99-0.53-1.8c9.54-20.87,19.04-41.76,28.55-62.65c3.74-8.22,7.5-16.44,11.21-24.68c0.33-0.73,0.73-0.99,1.63-0.98
		c6.29,0.04,12.59,0.04,18.88,0c0.86,0,1.22,0.26,1.51,0.96c12.1,29.11,24.23,58.21,36.37,87.31c0.24,0.58,0.19,0.93-0.37,1.35
		c-4.84,3.62-9.65,7.28-14.5,10.89c-0.4,0.3-1.07,0.46-1.61,0.46C288.22,611.86,277.43,611.85,266.64,611.85z"/>
</g>
<g>
	<path class="st8" d="M266.52,604.46c-8.74,0-17.48-0.01-26.22,0.01c-0.76,0-1.31-0.19-1.89-0.61c-3.87-2.78-7.75-5.56-11.67-8.29
		c-0.65-0.46-0.73-0.8-0.43-1.47c7.78-17.03,15.53-34.07,23.29-51.1c3.05-6.71,6.12-13.41,9.15-20.13c0.27-0.59,0.59-0.81,1.33-0.8
		c5.13,0.03,10.27,0.03,15.4,0c0.7,0,0.99,0.21,1.23,0.78c9.87,23.75,19.77,47.49,29.67,71.22c0.2,0.47,0.16,0.76-0.3,1.1
		c-3.95,2.95-7.87,5.94-11.83,8.88c-0.33,0.25-0.87,0.37-1.32,0.38C284.12,604.47,275.32,604.46,266.52,604.46z"/>
</g>
<ellipse class="st4" cx="268.22" cy="569.79" rx="9.69" ry="9.67"/>
<g>
	<path class="st4" d="M332.49,603.02l1.59-3.28c8.34,6.74,16.75,10.1,25.25,10.1c7.19,0,12.97-2.16,17.35-6.49
		c4.37-4.32,6.56-10.08,6.56-17.28c0-5.92-1.65-10.7-4.96-14.34c-3.31-3.64-7.32-6.33-12.01-8.05c-4.7-1.73-9.4-3.46-14.1-5.19
		c-4.7-1.73-8.7-4.41-12.01-8.06c-3.31-3.64-4.97-8.42-4.97-14.34c0-7.46,2.31-13.45,6.92-17.96c4.62-4.51,10.68-6.76,18.2-6.76
		c8.58,0,16.47,3.23,23.66,9.69l-1.59,3.28c-7.28-6.55-14.75-9.83-22.43-9.83c-6.54,0-11.81,1.96-15.81,5.87
		c-4.01,3.92-6.01,9.06-6.01,15.43c0,4.64,1.18,8.49,3.56,11.54c2.37,3.05,5.33,5.26,8.89,6.62c3.55,1.37,7.42,2.87,11.58,4.51
		c4.17,1.64,8.03,3.3,11.58,4.98c3.55,1.68,6.52,4.42,8.89,8.19c2.37,3.78,3.56,8.45,3.56,14c0,8.38-2.43,15.02-7.29,19.94
		c-4.86,4.92-11.46,7.38-19.8,7.38C349.53,612.98,340.66,609.66,332.49,603.02z"/>
	<path class="st4" d="M442.45,611.34h-2.94l0-11.74c-8.01,8.92-17,13.38-26.97,13.38c-5.39,0-9.73-1.57-12.99-4.71
		c-3.27-3.14-4.9-8.17-4.9-15.09l0-51.48l2.94,0l0,50.93c0,11.47,5.11,17.21,15.32,17.21c9.72,0,18.59-4.83,26.6-14.48l0-53.67h2.94
		L442.45,611.34z"/>
	<path class="st4" d="M453.85,611.34l0-69.64h2.94l0,11.74c8.01-8.92,17-13.38,26.97-13.38c5.39,0,9.72,1.57,12.99,4.71
		c3.27,3.14,4.9,8.17,4.91,15.09l0,51.48h-2.94l0-50.93c0-11.47-5.11-17.21-15.33-17.21c-9.73,0-18.59,4.83-26.6,14.48l0,53.67
		H453.85z"/>
	<path class="st4" d="M508.89,605.6l1.47-3.28c6.29,5.01,12.67,7.51,19.12,7.51c5.23,0,9.44-1.48,12.63-4.44s4.78-6.94,4.78-11.95
		c0-4.19-1.23-7.53-3.68-10.04c-2.45-2.5-5.42-4.37-8.89-5.6c-3.47-1.23-6.95-2.46-10.42-3.69c-3.48-1.23-6.44-3.16-8.89-5.8
		c-2.45-2.64-3.68-6.1-3.68-10.38c0-5.37,1.67-9.7,5.03-12.97c3.35-3.28,7.84-4.92,13.48-4.92c6.46,0,12.46,2.41,18.02,7.24
		l-1.47,3.28c-5.72-4.92-11.36-7.37-16.92-7.37c-4.58,0-8.26,1.34-11.03,4.03c-2.78,2.69-4.17,6.17-4.17,10.45
		c0,3.82,1.23,6.85,3.68,9.08c2.45,2.23,5.41,3.92,8.89,5.05c3.47,1.14,6.95,2.34,10.42,3.62c3.47,1.28,6.44,3.37,8.89,6.28
		c2.45,2.91,3.68,6.74,3.68,11.47c0,6.1-1.88,10.92-5.64,14.47c-3.76,3.55-8.79,5.33-15.08,5.33
		C521.84,612.97,515.1,610.51,508.89,605.6z"/>
	<path class="st4" d="M604.25,575.55l-47.44,0v0.96c0,10.65,2.19,18.87,6.56,24.65c4.37,5.78,10.28,8.67,17.71,8.67
		c6.62,0,13.32-2.64,20.1-7.92l1.47,3c-6.78,5.37-14.1,8.06-21.94,8.06c-8.09,0-14.59-3.16-19.49-9.49
		c-4.9-6.33-7.36-15.18-7.36-26.56c0-11.65,2.55-20.71,7.66-27.17c5.11-6.46,11.5-9.7,19.18-9.7c7.11,0,12.83,2.8,17.16,8.4
		c4.33,5.6,6.5,13.41,6.5,23.42C604.37,573.32,604.33,574.55,604.25,575.55z M580.71,543.19c-6.54,0-11.99,2.55-16.36,7.65
		c-4.37,5.1-6.84,12.29-7.42,21.58l44.5,0c0-9.47-1.84-16.71-5.52-21.71C592.24,545.69,587.17,543.19,580.71,543.19z"/>
	<path class="st4" d="M605.72,544.83v-3.14l14.46,0l0-23.21l2.94,0l0,23.21l18.88,0v3.14l-18.88,0l0,49.71
		c0,5.46,0.69,9.24,2.08,11.33c1.39,2.09,3.92,3.14,7.6,3.14c2.94,0,6.01-0.59,9.19-1.78v3.28c-3.6,1.09-6.74,1.64-9.44,1.64
		c-4.5,0-7.68-1.3-9.56-3.89c-1.88-2.59-2.82-7.08-2.82-13.45l0-49.98L605.72,544.83z"/>
</g>
<g>
	<g>
		<path class="st4" d="M651.63,613.12l-0.25-104.61l3.13-0.01l0.24,101.27l46.95-0.11l0.01,3.34L651.63,613.12z"/>
		<path class="st4" d="M732.05,537.08c6.52-0.02,11.48,1.77,14.88,5.34c3.4,3.58,5.11,9.34,5.13,17.28l0.09,36.32
			c0.02,8.33,0.47,13.95,1.34,16.85l-3.13,0.01c-0.53-1.64-0.97-5.08-1.33-10.31c-7.81,8.06-16.19,12.1-25.15,12.12
			c-6.26,0.01-11.24-1.88-14.95-5.7c-3.71-3.82-5.57-9.31-5.58-16.48c-0.02-7.94,2.49-13.86,7.52-17.74
			c5.03-3.88,12.85-5.84,23.46-5.87c4.43-0.01,9.3,0.46,14.61,1.42L748.93,560c-0.02-6.97-1.44-11.98-4.28-15.03
			c-2.83-3.04-7.08-4.56-12.73-4.55c-7.48,0.02-15.21,3.04-23.2,9.06l-1.57-3.19C715.23,540.18,723.53,537.1,732.05,537.08z
			 M724.27,611.35c8.61-0.02,16.86-4.45,24.75-13.28l-0.06-24.41c-5.13-0.95-9.92-1.43-14.35-1.42c-9.74,0.02-16.87,1.71-21.38,5.06
			c-4.51,3.35-6.76,8.42-6.75,15.2c0.01,6.01,1.61,10.65,4.79,13.94C714.46,609.72,718.79,611.36,724.27,611.35z"/>
		<path class="st4" d="M763.55,508.24l3.13-0.01l0.1,41.99c7.02-8.83,15.05-13.26,24.1-13.28c8.09-0.02,14.66,3.33,19.72,10.05
			c5.06,6.72,7.6,16.18,7.63,28.39c0.03,12.59-2.62,22.26-7.95,29c-5.33,6.75-12.13,10.13-20.39,10.15
			c-8.26,0.02-15.92-4.18-22.98-12.59l0.03,10.9l-3.13,0.01L763.55,508.24z M790.49,540.29c-8.26,0.02-16.16,4.83-23.7,14.44
			l0.1,42.72c7.07,9.19,14.81,13.77,23.25,13.75c7.3-0.02,13.3-3.11,17.98-9.27c4.68-6.16,7.01-14.96,6.98-26.39
			c-0.03-11.23-2.33-19.92-6.91-26.06C803.61,543.33,797.71,540.27,790.49,540.29z"/>
		<path class="st4" d="M822.61,606.61l1.56-3.49c6.71,5.31,13.5,7.96,20.37,7.94c5.56-0.01,10.04-1.6,13.42-4.75
			c3.38-3.15,5.07-7.4,5.06-12.73c-0.01-4.45-1.32-8.01-3.94-10.67c-2.61-2.66-5.77-4.64-9.47-5.94c-3.7-1.3-7.4-2.6-11.1-3.9
			c-3.7-1.3-6.85-3.35-9.47-6.15c-2.62-2.8-3.93-6.48-3.94-11.03c-0.01-5.71,1.76-10.32,5.31-13.81c3.56-3.5,8.33-5.25,14.33-5.27
			c6.87-0.02,13.27,2.54,19.19,7.65l-1.56,3.49c-6.1-5.22-12.11-7.82-18.02-7.8c-4.87,0.01-8.78,1.45-11.73,4.31
			c-2.95,2.86-4.42,6.57-4.41,11.12c0.01,4.07,1.32,7.29,3.94,9.65s5.77,4.15,9.47,5.35c3.7,1.2,7.4,2.48,11.1,3.82
			c3.7,1.35,6.86,3.57,9.47,6.66c2.62,3.09,3.93,7.16,3.94,12.2c0.02,6.49-1.97,11.63-5.96,15.41c-3.99,3.79-9.33,5.69-16.03,5.71
			C836.41,614.42,829.23,611.82,822.61,606.61z"/>
	</g>
</g>
<rect x="-46.5" y="-2351.5" class="st2" width="1124" height="1103"/>
<g>
	<path class="st8" d="M241.64-1735.15c-10.72,0-21.43-0.01-32.15,0.02c-0.93,0-1.61-0.24-2.32-0.75
		c-4.74-3.41-9.51-6.81-14.31-10.16c-0.8-0.56-0.9-0.99-0.53-1.8c9.54-20.88,19.04-41.76,28.55-62.65
		c3.74-8.22,7.5-16.44,11.21-24.68c0.33-0.73,0.73-0.99,1.63-0.98c6.29,0.04,12.59,0.04,18.88,0c0.86,0,1.22,0.26,1.51,0.96
		c12.1,29.11,24.23,58.21,36.37,87.31c0.24,0.58,0.19,0.93-0.37,1.35c-4.84,3.62-9.65,7.28-14.5,10.89c-0.4,0.3-1.07,0.46-1.61,0.46
		C263.22-1735.15,252.43-1735.15,241.64-1735.15z"/>
</g>
<g>
	<path class="st8" d="M241.52-1742.54c-8.74,0-17.48-0.01-26.22,0.01c-0.76,0-1.31-0.19-1.89-0.61c-3.87-2.78-7.75-5.56-11.67-8.29
		c-0.65-0.46-0.73-0.8-0.43-1.47c7.78-17.03,15.53-34.07,23.29-51.1c3.05-6.71,6.12-13.41,9.15-20.13c0.27-0.59,0.59-0.81,1.33-0.8
		c5.13,0.03,10.27,0.03,15.4,0c0.7,0,0.99,0.21,1.23,0.78c9.87,23.75,19.77,47.49,29.67,71.22c0.2,0.47,0.16,0.76-0.3,1.1
		c-3.95,2.95-7.87,5.94-11.83,8.88c-0.33,0.25-0.87,0.37-1.32,0.38C259.12-1742.53,250.32-1742.54,241.52-1742.54z"/>
</g>
<ellipse class="st5" cx="243.22" cy="-1777.21" rx="9.69" ry="9.67"/>
<g>
	<path class="st4" d="M307.49-1743.98l1.59-3.28c8.34,6.74,16.75,10.1,25.25,10.1c7.19,0,12.97-2.16,17.35-6.49
		c4.37-4.32,6.56-10.08,6.56-17.27c0-5.92-1.65-10.7-4.96-14.34c-3.31-3.64-7.32-6.33-12.01-8.06c-4.7-1.73-9.4-3.46-14.1-5.19
		c-4.7-1.73-8.7-4.41-12.01-8.06c-3.31-3.64-4.97-8.42-4.97-14.34c0-7.46,2.31-13.45,6.92-17.96c4.62-4.51,10.68-6.76,18.2-6.76
		c8.58,0,16.47,3.23,23.66,9.69l-1.59,3.28c-7.28-6.55-14.75-9.83-22.43-9.83c-6.54,0-11.81,1.96-15.81,5.87
		c-4.01,3.92-6.01,9.06-6.01,15.43c0,4.64,1.18,8.49,3.56,11.54c2.37,3.05,5.33,5.26,8.89,6.62c3.55,1.37,7.42,2.87,11.58,4.51
		c4.17,1.64,8.03,3.3,11.58,4.98c3.55,1.69,6.52,4.42,8.89,8.19c2.37,3.78,3.56,8.44,3.56,14c0,8.38-2.43,15.02-7.29,19.94
		c-4.86,4.92-11.46,7.38-19.8,7.38C324.53-1734.02,315.66-1737.34,307.49-1743.98z"/>
	<path class="st4" d="M417.45-1735.66h-2.94l0-11.74c-8.01,8.92-17,13.38-26.97,13.38c-5.39,0-9.73-1.57-12.99-4.71
		c-3.27-3.14-4.9-8.17-4.9-15.09l0-51.48l2.94,0l0,50.93c0,11.47,5.11,17.21,15.32,17.21c9.72,0,18.59-4.83,26.6-14.48l0-53.67h2.94
		L417.45-1735.66z"/>
	<path class="st4" d="M428.85-1735.66l0-69.64h2.94l0,11.74c8.01-8.92,17-13.38,26.97-13.38c5.39,0,9.72,1.57,12.99,4.71
		c3.27,3.14,4.9,8.17,4.91,15.09l0,51.48h-2.94l0-50.93c0-11.47-5.11-17.21-15.33-17.2c-9.73,0-18.59,4.83-26.6,14.48l0,53.67
		H428.85z"/>
	<path class="st4" d="M483.89-1741.4l1.47-3.28c6.29,5.01,12.67,7.51,19.12,7.51c5.23,0,9.44-1.48,12.63-4.44
		c3.19-2.96,4.78-6.94,4.78-11.95c0-4.19-1.23-7.53-3.68-10.04c-2.45-2.5-5.42-4.37-8.89-5.6c-3.47-1.23-6.95-2.46-10.42-3.69
		c-3.48-1.23-6.44-3.16-8.89-5.8c-2.45-2.64-3.68-6.1-3.68-10.38c0-5.37,1.67-9.7,5.03-12.97c3.35-3.28,7.84-4.92,13.48-4.92
		c6.46,0,12.46,2.41,18.02,7.24l-1.47,3.28c-5.72-4.92-11.36-7.37-16.92-7.37c-4.58,0-8.26,1.34-11.03,4.03
		c-2.78,2.69-4.17,6.17-4.17,10.45c0,3.82,1.23,6.85,3.68,9.08c2.45,2.23,5.41,3.92,8.89,5.05c3.47,1.14,6.95,2.34,10.42,3.62
		c3.47,1.28,6.44,3.37,8.89,6.28c2.45,2.91,3.68,6.74,3.68,11.47c0,6.1-1.88,10.92-5.64,14.47c-3.76,3.55-8.79,5.33-15.08,5.33
		C496.84-1734.03,490.1-1736.49,483.89-1741.4z"/>
	<path class="st4" d="M579.25-1771.45l-47.44,0v0.96c0,10.65,2.19,18.87,6.56,24.65c4.37,5.78,10.28,8.67,17.71,8.67
		c6.62,0,13.32-2.64,20.1-7.92l1.47,3c-6.78,5.37-14.1,8.06-21.94,8.06c-8.09,0-14.59-3.16-19.49-9.49
		c-4.9-6.33-7.36-15.18-7.36-26.56c0-11.65,2.55-20.71,7.66-27.17c5.11-6.46,11.5-9.7,19.18-9.7c7.11,0,12.83,2.8,17.16,8.4
		c4.33,5.6,6.5,13.41,6.5,23.42C579.37-1773.68,579.33-1772.45,579.25-1771.45z M555.71-1803.81c-6.54,0-11.99,2.55-16.36,7.65
		c-4.37,5.1-6.84,12.29-7.42,21.58l44.5,0c0-9.47-1.84-16.7-5.52-21.71C567.24-1801.31,562.17-1803.81,555.71-1803.81z"/>
	<path class="st4" d="M580.72-1802.17v-3.14l14.46,0l0-23.21l2.94,0l0,23.21l18.88,0v3.14l-18.88,0l0,49.71
		c0,5.46,0.69,9.24,2.08,11.33c1.39,2.1,3.92,3.14,7.6,3.14c2.94,0,6.01-0.59,9.19-1.78v3.28c-3.6,1.09-6.74,1.64-9.44,1.64
		c-4.5,0-7.68-1.3-9.56-3.89c-1.88-2.59-2.82-7.08-2.82-13.45l0-49.98L580.72-1802.17z"/>
</g>
<g>
	<g>
		<path class="st5" d="M626.63-1733.88l-0.25-104.61l3.13-0.01l0.24,101.27l46.95-0.11l0.01,3.34L626.63-1733.88z"/>
		<path class="st5" d="M707.05-1809.92c6.52-0.02,11.48,1.77,14.88,5.34c3.4,3.58,5.11,9.34,5.13,17.28l0.09,36.32
			c0.02,8.33,0.47,13.95,1.34,16.85l-3.13,0.01c-0.53-1.64-0.97-5.08-1.33-10.31c-7.81,8.06-16.19,12.1-25.15,12.12
			c-6.26,0.01-11.24-1.88-14.95-5.7c-3.71-3.82-5.57-9.31-5.58-16.48c-0.02-7.94,2.49-13.86,7.52-17.74
			c5.03-3.89,12.85-5.84,23.46-5.87c4.43-0.01,9.3,0.46,14.61,1.42l-0.02-10.32c-0.02-6.97-1.44-11.98-4.28-15.03
			c-2.83-3.04-7.08-4.56-12.73-4.55c-7.48,0.02-15.21,3.04-23.2,9.06l-1.57-3.19C690.23-1806.82,698.53-1809.9,707.05-1809.92z
			 M699.27-1735.65c8.61-0.02,16.86-4.45,24.75-13.28l-0.06-24.41c-5.13-0.95-9.92-1.43-14.35-1.42
			c-9.74,0.02-16.87,1.71-21.38,5.06c-4.51,3.35-6.76,8.42-6.75,15.2c0.01,6.01,1.61,10.65,4.79,13.94
			C689.46-1737.27,693.79-1735.64,699.27-1735.65z"/>
		<path class="st5" d="M738.55-1838.76l3.13-0.01l0.1,41.99c7.02-8.83,15.05-13.26,24.1-13.28c8.09-0.02,14.66,3.33,19.72,10.05
			c5.06,6.72,7.6,16.18,7.63,28.39c0.03,12.59-2.62,22.26-7.95,29c-5.33,6.75-12.13,10.13-20.39,10.15
			c-8.26,0.02-15.92-4.18-22.98-12.59l0.03,10.9l-3.13,0.01L738.55-1838.76z M765.49-1806.71c-8.26,0.02-16.16,4.83-23.7,14.44
			l0.1,42.72c7.07,9.19,14.81,13.77,23.25,13.75c7.3-0.02,13.3-3.11,17.98-9.27c4.68-6.16,7.01-14.96,6.98-26.39
			c-0.03-11.24-2.33-19.92-6.91-26.06C778.61-1803.67,772.71-1806.73,765.49-1806.71z"/>
		<path class="st5" d="M797.61-1740.39l1.56-3.49c6.71,5.31,13.5,7.96,20.37,7.94c5.56-0.01,10.04-1.6,13.42-4.75
			c3.38-3.15,5.07-7.4,5.06-12.73c-0.01-4.45-1.32-8.01-3.94-10.67c-2.61-2.66-5.77-4.64-9.47-5.93c-3.7-1.3-7.4-2.6-11.1-3.9
			c-3.7-1.3-6.85-3.35-9.47-6.15c-2.62-2.8-3.93-6.48-3.94-11.03c-0.01-5.71,1.76-10.32,5.31-13.82c3.56-3.5,8.33-5.25,14.33-5.26
			c6.87-0.02,13.27,2.54,19.19,7.65l-1.56,3.49c-6.1-5.22-12.11-7.82-18.02-7.8c-4.87,0.01-8.78,1.45-11.73,4.31
			c-2.95,2.86-4.42,6.57-4.41,11.12c0.01,4.07,1.32,7.29,3.94,9.65c2.61,2.37,5.77,4.15,9.47,5.35c3.7,1.2,7.4,2.48,11.1,3.82
			c3.7,1.35,6.86,3.57,9.47,6.66c2.62,3.09,3.93,7.16,3.94,12.2c0.02,6.49-1.97,11.63-5.96,15.42c-3.99,3.79-9.33,5.69-16.03,5.71
			C811.41-1732.58,804.23-1735.18,797.61-1740.39z"/>
	</g>
</g>
</svg>
